<?xml version="1.0" encoding="UTF-8" standalone="no"?>
<svg
   xmlns:dc="http://purl.org/dc/elements/1.1/"
   xmlns:cc="http://creativecommons.org/ns#"
   xmlns:rdf="http://www.w3.org/1999/02/22-rdf-syntax-ns#"
   xmlns:svg="http://www.w3.org/2000/svg"
   xmlns="http://www.w3.org/2000/svg"
   xmlns:sodipodi="http://sodipodi.sourceforge.net/DTD/sodipodi-0.dtd"
   xmlns:inkscape="http://www.inkscape.org/namespaces/inkscape"
   viewBox="0 0 24 24"
   fill="white"
   width="18px"
   height="18px"
   version="1.1"
   id="svg6"
   sodipodi:docname="clear-white-18dp.svg"
   inkscape:version="1.0.1 (3bc2e813f5, 2020-09-07)">
  <metadata
     id="metadata12">
    <rdf:RDF>
      <cc:Work
         rdf:about="">
        <dc:format>image/svg+xml</dc:format>
        <dc:type
           rdf:resource="http://purl.org/dc/dcmitype/StillImage" />
        <dc:title></dc:title>
      </cc:Work>
    </rdf:RDF>
  </metadata>
  <defs
     id="defs10">
    <marker
       style="overflow:visible;"
       id="Arrow1Lend"
       refX="0.0"
       refY="0.0"
       orient="auto"
       inkscape:stockid="Arrow1Lend"
       inkscape:isstock="true">
      <path
         transform="scale(0.8) rotate(180) translate(12.5,0)"
         style="fill-rule:evenodd;stroke:#ffffff;stroke-width:1pt;stroke-opacity:1;fill:#ffffff"
         d="M 0.0,0.0 L 5.0,-5.0 L -12.5,0.0 L 5.0,5.0 L 0.0,0.0 z "
         id="path842" />
    </marker>
  </defs>
  <sodipodi:namedview
     pagecolor="#4a4a4a"
     bordercolor="#666666"
     borderopacity="1"
     objecttolerance="10"
     gridtolerance="10"
     guidetolerance="10"
     inkscape:pageopacity="0"
     inkscape:pageshadow="2"
     inkscape:window-width="1920"
     inkscape:window-height="1017"
     id="namedview8"
     showgrid="false"
     inkscape:zoom="20.416667"
     inkscape:cx="9"
     inkscape:cy="7.0408163"
     inkscape:window-x="-8"
     inkscape:window-y="-8"
     inkscape:window-maximized="1"
     inkscape:current-layer="svg6" />
  <path
     d="M0 0h24v24H0V0z"
     fill="none"
     id="path2" />
  <path
     d="m 17.270258,6.7381069 c -0.326254,-0.3262541 -0.85328,-0.3262541 -1.179534,0 L 12,10.820466 7.9092759,6.7297414 c -0.3262541,-0.3262541 -0.8532799,-0.3262541 -1.179534,0 -0.3262541,0.3262541 -0.3262541,0.8532799 0,1.179534 L 10.820466,12 6.7297419,16.090724 c -0.3262541,0.326254 -0.3262541,0.85328 0,1.179534 0.3262541,0.326255 0.8532799,0.326255 1.179534,0 L 12,13.179534 l 4.090724,4.090724 c 0.326254,0.326255 0.85328,0.326255 1.179534,0 0.326254,-0.326254 0.326254,-0.85328 0,-1.179534 L 13.179534,12 17.270258,7.9092754 c 0.317889,-0.3178886 0.317889,-0.8532799 0,-1.1711685 z"
     id="path4"
     style="stroke-width:0.836549" />
  <ellipse
     style="fill:none;fill-rule:evenodd;stroke:#ffffff;stroke-width:1.67557;stroke-linecap:butt;stroke-linejoin:round;stroke-miterlimit:9;stroke-dasharray:none;paint-order:normal"
     id="path837"
     cx="12"
     cy="12"
     rx="11.162213"
     ry="11.162214" />
</svg>
